<svg xmlns="http://www.w3.org/2000/svg" version="1.1" xmlns:xlink="http://www.w3.org/1999/xlink" xmlns:svgjs="http://svgjs.dev/svgjs" width="2000" height="382" viewBox="0 0 2000 382"><g transform="matrix(1,0,0,1,-1.0913902690007262,-37.83787560798464)"><svg viewBox="0 0 403 77" data-background-color="#1d366f" preserveAspectRatio="xMidYMid meet" height="382" width="2000" xmlns="http://www.w3.org/2000/svg" xmlns:xlink="http://www.w3.org/1999/xlink"><g id="tight-bounds" transform="matrix(1,0,0,1,0.2199151392036356,7.627006339829364)"><svg viewBox="0 0 395.52 63.59699170758036" height="63.59699170758036" width="395.52"><g><svg viewBox="0 0 506.14899453118636 81.38539999999999" height="63.59699170758036" width="395.52"><g><svg viewBox="0 0 506.14899453118636 81.38539999999999" height="81.38539999999999" width="506.14899453118636"><g id="textblocktransform"><svg viewBox="0 0 506.14899453118636 81.38539999999999" height="81.38539999999999" width="506.14899453118636" id="textblock"><g><svg viewBox="0 0 506.14899453118636 81.38539999999999" height="81.38539999999999" width="506.14899453118636"><g><svg><g></g><g></g></svg></g><g><svg><g><svg></svg></g><g></g></svg></g><g id="text-0"><svg viewBox="0 0 506.14899453118636 81.38539999999999" height="81.38539999999999" width="506.14899453118636"><g transform="matrix(1,0,0,1,0,3.778967742833288)"><svg width="395.52" viewBox="1.38 -39.25 269.45 50.3" height="73.82746451433341" data-palette-color="#ffffff"><path d="M15.2 0.23L15.2 0.23Q22.7 0.23 25.56-3.65 28.43-7.53 28.43-13.4L28.43-13.4 23.23-13.4Q23.23-8.05 21.19-5.69 19.15-3.33 15.15-3.33L15.15-3.33Q11.08-3.33 8.81-5.94 6.55-8.55 6.55-16.95L6.55-16.95Q6.55-25.33 8.81-27.9 11.08-30.48 15.15-30.48L15.15-30.48Q19.15-30.48 21.19-28.18 23.23-25.88 23.23-20.48L23.23-20.48 28.43-20.48Q28.43-26.45 25.56-30.24 22.7-34.02 15.18-34.02L15.18-34.02Q7.63-34.02 4.5-29.98 1.38-25.93 1.38-16.95L1.38-16.95Q1.38-7.98 4.51-3.88 7.65 0.23 15.2 0.23ZM34.35-39.25L34.35 0 39.42 0 39.42-39.25 34.35-39.25ZM46.05-29.65L46.05 0 51.12 0 51.12-29.65 46.05-29.65ZM51.12-37.75L46.05-37.75 46.05-33.27 51.12-33.27 51.12-37.75ZM76.62-24.28L76.62 11.05 81.67 11.05 81.67-29.63 77.69-29.63 76.62-24.28ZM67.29 0.2L67.29 0.2Q72.14 0.2 75.49-2.24 78.84-4.67 78.84-7.3L78.84-7.3 76.67-10.03Q76.67-7.43 74.41-5.38 72.14-3.33 68.99-3.33L68.99-3.33Q65.64-3.33 63.69-5.76 61.74-8.2 61.74-14.85L61.74-14.85Q61.74-21.5 63.69-23.94 65.64-26.38 68.99-26.38L68.99-26.38Q72.14-26.38 74.41-24.34 76.67-22.3 76.67-19.73L76.67-19.73 78.84-22.38Q78.84-25.03 75.49-27.46 72.14-29.9 67.29-29.9L67.29-29.9Q61.97-29.9 59.31-26.18 56.64-22.45 56.64-14.88L56.64-14.88Q56.64-7.3 59.31-3.55 61.97 0.2 67.29 0.2ZM105.77-5L106.89 0 110.81 0 110.81-29.63 105.77-29.63 105.77-5ZM92.12-12.75L92.12-29.65 87.06-29.65 87.06-12.55Q87.06-6.5 89.18-3.11 91.29 0.28 96.49 0.28L96.49 0.28Q101.89 0.28 105.08-2.96 108.27-6.2 108.27-9.83L108.27-9.83 105.79-11.3Q105.79-7.8 103.6-5.54 101.42-3.28 98.27-3.28L98.27-3.28Q95.14-3.28 93.63-5.43 92.12-7.58 92.12-12.75L92.12-12.75ZM128.69 0.25L128.69 0.25 128.69-3.1Q124.89-3.1 122.76-5.88L122.76-5.88Q120.61-8.6 120.61-14.88L120.61-14.88Q120.61-21.5 122.84-24.05L122.84-24.05Q125.04-26.58 128.61-26.58L128.61-26.58Q132.29-26.58 134.34-24.18L134.34-24.18Q136.11-21.93 136.31-16.48L136.31-16.48 120.06-16.48 120.06-13.33 141.31-13.33Q141.41-14.08 141.41-14.95L141.41-14.95Q141.41-22.38 138.46-26.15L138.46-26.15Q135.49-29.93 128.61-29.93L128.61-29.93Q121.94-29.93 118.84-26.15L118.84-26.15Q115.71-22.4 115.71-14.88L115.71-14.88Q115.71-7.78 118.76-3.75L118.76-3.75Q121.79 0.25 128.69 0.25ZM128.69-3.1L128.69-3.1 128.69 0.25Q132.44 0.25 134.89-0.73L134.89-0.73Q137.34-1.7 138.89-3.85L138.89-3.85Q140.41-5.98 140.84-9.03L140.84-9.03 136.29-10.25Q135.86-8.05 135.01-6.3L135.01-6.3Q134.11-4.55 132.49-3.83L132.49-3.83Q130.86-3.1 128.69-3.1ZM158.74 0.2L158.74 0.2Q166.09 0.2 168.95-2.58 171.81-5.35 171.81-9.38L171.81-9.38Q171.81-13.68 169.17-15.43 166.54-17.18 160.19-18.73L160.19-18.73Q155.64-19.85 153.07-21.1 150.51-22.35 150.51-25.28L150.51-25.28Q150.51-27.58 152.61-29.04 154.71-30.5 158.61-30.5L158.61-30.5Q162.46-30.5 164.56-28.8 166.66-27.1 166.66-21.53L166.66-21.53 171.79-21.53Q171.79-27.9 168.92-30.96 166.06-34.02 158.66-34.02L158.66-34.02Q151.41-34.02 148.49-31.3 145.56-28.58 145.56-24.73L145.56-24.73Q145.56-20.5 148.22-18.63 150.89-16.75 157.06-15.23L157.06-15.23Q161.69-14.13 164.22-12.91 166.76-11.7 166.76-8.68L166.76-8.68Q166.76-6.2 164.69-4.76 162.61-3.33 158.69-3.33L158.69-3.33Q154.76-3.33 152.71-5.05 150.66-6.78 150.66-12.53L150.66-12.53 145.53-12.53Q145.53-5.78 148.37-2.79 151.21 0.2 158.74 0.2ZM189.06 0.2L189.06 0.2Q195.71 0.2 198.9-3.49 202.08-7.18 202.08-14.9L202.08-14.9Q202.08-22.63 198.9-26.29 195.71-29.95 189.06-29.95L189.06-29.95Q182.43-29.95 179.23-26.29 176.03-22.63 176.03-14.9L176.03-14.9Q176.03-7.18 179.23-3.49 182.43 0.2 189.06 0.2ZM189.06-3.28L189.06-3.28Q185.58-3.28 183.33-5.71 181.08-8.15 181.08-14.88L181.08-14.88Q181.08-21.6 183.33-24.03 185.58-26.45 189.06-26.45L189.06-26.45Q192.53-26.45 194.78-24.03 197.03-21.6 197.03-14.88L197.03-14.88Q197.03-8.15 194.78-5.71 192.53-3.28 189.06-3.28ZM207.61-39.25L207.61 0 212.68 0 212.68-39.25 207.61-39.25ZM216.8-29.65L226.15 0 233.1 0 242.5-29.65 237.2-29.65 229.68-3.53 229.63-3.53 222.13-29.65 216.8-29.65ZM258.1 0.25L258.1 0.25 258.1-3.1Q254.3-3.1 252.18-5.88L252.18-5.88Q250.03-8.6 250.03-14.88L250.03-14.88Q250.03-21.5 252.25-24.05L252.25-24.05Q254.45-26.58 258.03-26.58L258.03-26.58Q261.7-26.58 263.75-24.18L263.75-24.18Q265.53-21.93 265.73-16.48L265.73-16.48 249.48-16.48 249.48-13.33 270.73-13.33Q270.83-14.08 270.83-14.95L270.83-14.95Q270.83-22.38 267.88-26.15L267.88-26.15Q264.9-29.93 258.03-29.93L258.03-29.93Q251.35-29.93 248.25-26.15L248.25-26.15Q245.13-22.4 245.13-14.88L245.13-14.88Q245.13-7.78 248.18-3.75L248.18-3.75Q251.2 0.25 258.1 0.25ZM258.1-3.1L258.1-3.1 258.1 0.25Q261.85 0.25 264.3-0.73L264.3-0.73Q266.75-1.7 268.3-3.85L268.3-3.85Q269.83-5.98 270.25-9.03L270.25-9.03 265.7-10.25Q265.28-8.05 264.43-6.3L264.43-6.3Q263.53-4.55 261.9-3.83L261.9-3.83Q260.28-3.1 258.1-3.1Z" opacity="1" transform="matrix(1,0,0,1,0,0)" fill="#ffffff" class="wordmark-text-0" data-fill-palette-color="primary"></path></svg></g><g><svg xmlns="http://www.w3.org/2000/svg" data-name="Layer 1" viewBox="0.5980691622524059 6.073506978096545 98.80386167549518 87.96417506502831" x="414.7346" y="0" height="81.38539999999999" width="91.41439453118636" class="icon-cg-0" data-fill-palette-color="accent" id="cg-0"><g data-name="Group" fill="#08bfb9" data-fill-palette-color="accent"><path data-name="Compound Path" d="M87.7 70.3l-2.1 0.2L78.3 57.9a11.8 11.8 0 0 0-9.2-19.3l-1.9 0.2L59.5 25.2a11.8 11.8 0 1 0-18.5 0L33.2 38.7l-1.9-0.2a11.8 11.8 0 0 0-9.2 19.3L14.8 70.6l-2.5-0.3A11.8 11.8 0 1 0 23.5 86.1H39.1a11.8 11.8 0 0 0 22.3 0H76.5A11.8 11.8 0 1 0 87.7 70.3Zm-66 4.5L29 62l2.3 0.2H33l7.6 13.2a11.8 11.8 0 0 0-1.5 2.8H23.5A11.8 11.8 0 0 0 21.6 74.8ZM50.2 29.7l2.4-0.3 7.6 13.1a11.9 11.9 0 0 0-1.6 2.3H41.8a11.9 11.9 0 0 0-1.6-2.3l7.6-13.1Zm-3 41L40.1 58.4a11.8 11.8 0 0 0 2.9-5.5H57.5a11.8 11.8 0 0 0 2.9 5.5L53.3 70.7a11.5 11.5 0 0 0-6.1 0Zm12.7 4.6l7.6-13.2h1.7l2.3-0.2 7.2 12.5a11.8 11.8 0 0 0-2.1 3.6H61.3A11.8 11.8 0 0 0 59.9 75.3ZM73 50.4a3.8 3.8 0 1 1-3.8-3.8A3.8 3.8 0 0 1 73 50.4ZM50.2 14a3.8 3.8 0 0 1 0 7.7h0a3.8 3.8 0 0 1 0-7.7ZM31.3 46.5a3.8 3.8 0 1 1-3.8 3.8A3.8 3.8 0 0 1 31.3 46.5ZM12.3 86a3.8 3.8 0 1 1 3.8-3.8A3.8 3.8 0 0 1 12.3 86Zm37.9 0h0a3.8 3.8 0 1 1 3.8-3.8A3.8 3.8 0 0 1 50.2 86Zm37.4 0a3.8 3.8 0 1 1 3.8-3.8A3.8 3.8 0 0 1 87.7 86Z" fill="#08bfb9" data-fill-palette-color="accent"></path></g></svg></g></svg></g></svg></g></svg></g></svg></g><g></g></svg></g><defs></defs></svg><rect width="395.52" height="63.59699170758036" fill="none" stroke="none" visibility="hidden"></rect></g></svg></g></svg>